<?xml version="1.0" encoding="UTF-8" standalone="no"?>
<svg
   xmlns:dc="http://purl.org/dc/elements/1.1/"
   xmlns:cc="http://creativecommons.org/ns#"
   xmlns:rdf="http://www.w3.org/1999/02/22-rdf-syntax-ns#"
   xmlns:svg="http://www.w3.org/2000/svg"
   xmlns="http://www.w3.org/2000/svg"
   xmlns:sodipodi="http://sodipodi.sourceforge.net/DTD/sodipodi-0.dtd"
   xmlns:inkscape="http://www.inkscape.org/namespaces/inkscape"
   width="24"
   height="24"
   viewBox="0 0 24 24"
   version="1.1"
   id="svg14"
   sodipodi:docname="failed_circle-24px.svg"
   inkscape:version="0.92.4 (5da689c313, 2019-01-14)">
  <metadata
     id="metadata20">
    <rdf:RDF>
      <cc:Work
         rdf:about="">
        <dc:format>image/svg+xml</dc:format>
        <dc:type
           rdf:resource="http://purl.org/dc/dcmitype/StillImage" />
        <dc:title></dc:title>
      </cc:Work>
    </rdf:RDF>
  </metadata>
  <defs
     id="defs18" />
  <sodipodi:namedview
     pagecolor="#ffffff"
     bordercolor="#666666"
     borderopacity="1"
     objecttolerance="10"
     gridtolerance="10"
     guidetolerance="10"
     inkscape:pageopacity="0"
     inkscape:pageshadow="2"
     inkscape:window-width="3840"
     inkscape:window-height="2066"
     id="namedview16"
     showgrid="false"
     inkscape:zoom="76.791667"
     inkscape:cx="12.188823"
     inkscape:cy="12"
     inkscape:window-x="2869"
     inkscape:window-y="-11"
     inkscape:window-maximized="1"
     inkscape:current-layer="layer1" />
  <path
     d="M0 0h24v24H0z"
     fill="none"
     id="path12" />
  <g
     inkscape:groupmode="layer"
     id="layer1"
     inkscape:label="Layer 1">
    <path
       style="fill:#d40000;stroke-width:1.07111132"
       d="M 12 1.9921875 A 10.020377 10.007597 0 0 0 1.9804688 12 A 10.020377 10.007597 0 0 0 12 22.007812 A 10.020377 10.007597 0 0 0 22.019531 12 A 10.020377 10.007597 0 0 0 12 1.9921875 z M 7.1074219 5.8730469 L 12 10.765625 L 16.892578 5.8730469 L 18.126953 7.1074219 L 13.234375 12 L 18.126953 16.892578 L 16.892578 18.126953 L 12 13.234375 L 7.1074219 18.126953 L 5.8730469 16.892578 L 10.765625 12 L 5.8730469 7.1074219 L 7.1074219 5.8730469 z "
       id="path62" />
  </g>
  <g
     inkscape:groupmode="layer"
     id="layer2"
     inkscape:label="Layer 2" />
  <g
     inkscape:groupmode="layer"
     id="layer3"
     inkscape:label="Layer 3" />
  <g
     inkscape:groupmode="layer"
     id="layer4"
     inkscape:label="Layer 4" />
</svg>
