<?xml version="1.0" encoding="UTF-8" standalone="no"?>
<svg
   xmlns:dc="http://purl.org/dc/elements/1.1/"
   xmlns:cc="http://creativecommons.org/ns#"
   xmlns:rdf="http://www.w3.org/1999/02/22-rdf-syntax-ns#"
   xmlns:svg="http://www.w3.org/2000/svg"
   xmlns="http://www.w3.org/2000/svg"
   xmlns:sodipodi="http://sodipodi.sourceforge.net/DTD/sodipodi-0.dtd"
   xmlns:inkscape="http://www.inkscape.org/namespaces/inkscape"
   width="24"
   height="24"
   viewBox="0 0 24 24"
   version="1.1"
   id="svg26"
   sodipodi:docname="failed-24px.svg">
  <metadata
     id="metadata32">
    <rdf:RDF>
      <cc:Work
         rdf:about="">
        <dc:format>image/svg+xml</dc:format>
        <dc:type
           rdf:resource="http://purl.org/dc/dcmitype/StillImage" />
      </cc:Work>
    </rdf:RDF>
  </metadata>
  <defs
     id="defs30" />
  <sodipodi:namedview
     pagecolor="#ffffff"
     bordercolor="#666666"
     borderopacity="1"
     objecttolerance="10"
     gridtolerance="10"
     guidetolerance="10"
     inkscape:pageopacity="0"
     inkscape:pageshadow="2"
     inkscape:window-width="640"
     inkscape:window-height="480"
     id="namedview28"
     showgrid="false" />
  <path
     d="M0 0h24v24H0z"
     fill="none"
     id="path24" />
  <g
     inkscape:groupmode="layer"
     id="layer2"
     inkscape:label="Layer 2">
    <g
       id="g86">
      <path
         id="path72"
         d="M 0,0 H 24 V 24 H 0 Z"
         inkscape:connector-curvature="0"
         style="fill:none" />
      <path
         id="path74"
         d="M 12,2 C 6.48,2 2,6.48 2,12 2,17.52 6.48,22 12,22 17.52,22 22,17.52 22,12 22,6.48 17.52,2 12,2 Z M 10,17 5,12 6.41,10.59 10,14.17 17.59,6.58 19,8 Z"
         inkscape:connector-curvature="0" />
    </g>
    <ellipse
       style="fill:#000000;stroke-width:0.99299061"
       id="path92"
       cx="2.5067825"
       cy="12"
       rx="10.008096"
       ry="9.9883919" />
  </g>
  <g
     inkscape:groupmode="layer"
     id="layer1"
     inkscape:label="Layer 1">
    <path
       style="fill:#4d4d4d;stroke-width:0.8734982"
       d="M 18.114487,7.1171449 16.882854,5.8855125 12,10.768367 7.1171449,5.8855125 5.8855125,7.1171449 10.768367,11.999999 5.8855125,16.882854 7.1171449,18.114487 12,13.231632 l 4.882854,4.882855 1.231633,-1.231633 -4.882854,-4.882855 z"
       id="path22"
       inkscape:connector-curvature="0" />
  </g>
</svg>
